<svg id="Сгруппировать_324" data-name="Сгруппировать 324" xmlns="http://www.w3.org/2000/svg" width="21.981" height="13.739" viewBox="0 0 21.981 13.739">
  <g id="Сгруппировать_323" data-name="Сгруппировать 323">
    <path id="Контур_856" data-name="Контур 856" d="M9.147,102.187a3.332,3.332,0,0,0,1.049-.761,2.933,2.933,0,0,0,.635-1.974,3.35,3.35,0,0,0-.63-2.045A4.264,4.264,0,0,0,6.64,95.979H0v13.4H6.191a9.791,9.791,0,0,0,1.941-.18,3.841,3.841,0,0,0,1.552-.673,3.731,3.731,0,0,0,.973-1.053,3.837,3.837,0,0,0,.613-2.136,3.484,3.484,0,0,0-.535-1.963A3.085,3.085,0,0,0,9.147,102.187ZM2.739,98.306H5.73a5.33,5.33,0,0,1,1.625.209,1.2,1.2,0,0,1,.738,1.239,1.256,1.256,0,0,1-.559,1.176,2.829,2.829,0,0,1-1.454.332H2.739Zm4.729,8.509a3.309,3.309,0,0,1-1.392.236H2.739v-3.572H6.121A3.567,3.567,0,0,1,7.5,103.7a1.435,1.435,0,0,1,.874,1.438A1.68,1.68,0,0,1,7.468,106.815Z" transform="translate(0 -95.979)" fill="#fff"/>
    <rect id="Прямоугольник_602" data-name="Прямоугольник 602" width="5.888" height="1.687" transform="translate(13.956 0.632)" fill="#fff"/>
    <path id="Контур_857" data-name="Контур 857" d="M289.86,175.2a4.835,4.835,0,0,0-.812-2.072,4.091,4.091,0,0,0-1.754-1.483,5.806,5.806,0,0,0-2.39-.47,4.947,4.947,0,0,0-3.633,1.39,5.391,5.391,0,0,0-1.4,4,4.815,4.815,0,0,0,1.552,4.012A5.577,5.577,0,0,0,285,181.81a4.98,4.98,0,0,0,3.823-1.461,3.288,3.288,0,0,0,.984-1.812H287.1a2.186,2.186,0,0,1-.547.689,2.271,2.271,0,0,1-1.473.459,2.723,2.723,0,0,1-1.466-.378,2.394,2.394,0,0,1-1.064-2.114h7.4A12.756,12.756,0,0,0,289.86,175.2Zm-7.247.26a2.717,2.717,0,0,1,.709-1.551,2.136,2.136,0,0,1,1.586-.574,2.359,2.359,0,0,1,1.577.539,2.192,2.192,0,0,1,.707,1.586Z" transform="translate(-267.97 -168.071)" fill="#fff"/>
  </g>
</svg>
