<svg xmlns="http://www.w3.org/2000/svg" width="16.078" height="21.049" viewBox="0 0 16.078 21.049">
  <path id="Объединение_30" data-name="Объединение 30" d="M1.855,21.049A1.855,1.855,0,0,1,0,19.2V1.85A1.855,1.855,0,0,1,1.855,0H9.894V4.317a1.855,1.855,0,0,0,1.855,1.85h4.329V19.2a1.855,1.855,0,0,1-1.855,1.85ZM3.71,9.908v6.167a.617.617,0,0,0,.618.617h7.42a.617.617,0,0,0,.618-.617V9.908a.617.617,0,0,0-.618-.617H4.329A.617.617,0,0,0,3.71,9.908Zm1.237,5.55V10.524h6.184v4.933Zm6.8-10.524a.618.618,0,0,1-.618-.617V.361l4.585,4.572Z" fill="#fff"/>
</svg>
