<svg xmlns="http://www.w3.org/2000/svg" width="22.451" height="21.049" viewBox="0 0 22.451 21.049">
  <path id="doc-icon2" d="M11.8,21.036.573,18.931A.7.7,0,0,1,0,18.242V2.807a.7.7,0,0,1,.573-.689L11.8.014a.689.689,0,0,1,.577.149.7.7,0,0,1,.254.54v2.1h9.121a.7.7,0,0,1,.7.7V17.541a.7.7,0,0,1-.7.7H12.629v2.1a.7.7,0,0,1-.7.7A.658.658,0,0,1,11.8,21.036Zm.831-4.2h8.419V4.21H12.629v9.822h6.314a.7.7,0,1,1,0,1.4H12.629ZM4.21,7.718v7.016a.7.7,0,1,0,1.4,0v-2.1h1.4a2.806,2.806,0,0,0,0-5.613h-2.1A.7.7,0,0,0,4.21,7.718Zm8.419,1.4a3.51,3.51,0,0,1,2.806-3.438V9.823h4.139a3.508,3.508,0,0,1-6.946-.7Zm-7.016,2.1V8.42h1.4a1.4,1.4,0,0,1,0,2.806ZM16.838,8.42V5.684A3.515,3.515,0,0,1,19.574,8.42Z" fill="#fff"/>
</svg>
