<svg id="instagram" xmlns="http://www.w3.org/2000/svg" width="13.739" height="13.739" viewBox="0 0 13.739 13.739">
  <g id="Сгруппировать_327" data-name="Сгруппировать 327">
    <g id="Сгруппировать_326" data-name="Сгруппировать 326">
      <path id="Контур_859" data-name="Контур 859" d="M9.446,0H4.293A4.294,4.294,0,0,0,0,4.293V9.446a4.294,4.294,0,0,0,4.293,4.293H9.446a4.294,4.294,0,0,0,4.293-4.293V4.293A4.294,4.294,0,0,0,9.446,0Zm3.005,9.446a3.009,3.009,0,0,1-3.005,3.005H4.293A3.009,3.009,0,0,1,1.288,9.446V4.293A3.009,3.009,0,0,1,4.293,1.288H9.446a3.009,3.009,0,0,1,3.005,3.005Z" fill="#fff"/>
    </g>
  </g>
  <g id="Сгруппировать_329" data-name="Сгруппировать 329" transform="translate(3.21 3.21)">
    <g id="Сгруппировать_328" data-name="Сгруппировать 328">
      <path id="Контур_860" data-name="Контур 860" d="M131.66,128a3.66,3.66,0,1,0,3.66,3.66A3.66,3.66,0,0,0,131.66,128Zm0,5.947a2.287,2.287,0,1,1,2.287-2.287A2.29,2.29,0,0,1,131.66,133.947Z" transform="translate(-128 -128)" fill="#fff"/>
    </g>
  </g>
  <g id="Сгруппировать_331" data-name="Сгруппировать 331" transform="translate(10.057 2.707)">
    <g id="Сгруппировать_330" data-name="Сгруппировать 330">
      <circle id="Эллипс_28" data-name="Эллипс 28" cx="0.488" cy="0.488" r="0.488" fill="#fff"/>
    </g>
  </g>
</svg>
