<svg xmlns="http://www.w3.org/2000/svg" width="27.575" height="19.388" viewBox="0 0 27.575 19.388">
  <path id="mail-yellow" d="M2.424,19.388a2.393,2.393,0,0,1-1.038-.243l8.363-8.309,1.183,1.183a4.043,4.043,0,0,0,5.712,0l1.183-1.183,8.363,8.309a2.391,2.391,0,0,1-1.038.243ZM18.969,9.694l8.363-8.309a2.4,2.4,0,0,1,.243,1.038V16.965A2.4,2.4,0,0,1,27.332,18ZM0,16.965V2.424A2.4,2.4,0,0,1,.243,1.385L8.606,9.694.243,18A2.4,2.4,0,0,1,0,16.965Zm12.074-6.087L1.385.243A2.4,2.4,0,0,1,2.424,0H25.151a2.394,2.394,0,0,1,1.038.243L15.5,10.878a2.426,2.426,0,0,1-3.427,0Z" fill="#ffae42"/>
</svg>
