<svg id="pinterest-icon" xmlns="http://www.w3.org/2000/svg" width="16.648" height="20.491" viewBox="0 0 16.648 20.491">
  <g id="Сгруппировать_332" data-name="Сгруппировать 332">
    <path id="Контур_861" data-name="Контур 861" d="M56.607,0C50.991,0,48,3.6,48,7.523c0,1.82,1.017,4.089,2.645,4.809.247.111.382.064.437-.165.049-.174.263-1.013.366-1.409a.362.362,0,0,0-.087-.356A4.666,4.666,0,0,1,50.4,7.57a5.52,5.52,0,0,1,5.879-5.394c3.2,0,5.442,2.08,5.442,5.055,0,3.362-1.779,5.688-4.091,5.688a1.831,1.831,0,0,1-1.93-2.246c.365-1.479,1.081-3.07,1.081-4.137a1.589,1.589,0,0,0-1.644-1.748c-1.3,0-2.359,1.29-2.359,3.021a4.307,4.307,0,0,0,.389,1.843s-1.288,5.2-1.528,6.177a13.821,13.821,0,0,0,.095,4.54.135.135,0,0,0,.246.063A16.136,16.136,0,0,0,54.1,16.437c.159-.585.811-2.958.811-2.958A3.54,3.54,0,0,0,57.892,14.9c3.924,0,6.76-3.449,6.76-7.729C64.638,3.07,61.126,0,56.607,0Z" transform="translate(-48.004)" fill="#e60023"/>
  </g>
</svg>
