<svg xmlns="http://www.w3.org/2000/svg" width="82.09" height="78.683" viewBox="0 0 82.09 78.683">
  <g id="powerpoint_1_" data-name="powerpoint (1)" transform="translate(0 -10.626)">
    <g id="Сгруппировать_151" data-name="Сгруппировать 151" transform="translate(0 10.626)">
      <path id="Контур_151" data-name="Контур 151" d="M364.377,117.377a1.71,1.71,0,0,0-1.71,1.71v10.261a1.71,1.71,0,0,0,1.71,1.71h10.261a1.71,1.71,0,0,0,1.71-1.71A11.972,11.972,0,0,0,364.377,117.377Z" transform="translate(-304.52 -100.261)" fill="#e54b23"/>
      <path id="Контур_152" data-name="Контур 152" d="M292.714,153.306a5.131,5.131,0,0,1-5.131-5.131V139.8a11.944,11.944,0,1,0,13.507,13.507Z" transform="translate(-232.857 -119.088)" fill="#e54b23"/>
      <path id="Контур_153" data-name="Контур 153" d="M47.242,11.009a1.71,1.71,0,0,0-1.45-.342L1.327,20.928A1.71,1.71,0,0,0,0,22.611V80.758a1.71,1.71,0,0,0,1.45,1.69l44.465,6.841a1.71,1.71,0,0,0,1.97-1.69V12.35A1.709,1.709,0,0,0,47.242,11.009Z" transform="translate(0 -10.626)" fill="#e54b23"/>
      <path id="Контур_154" data-name="Контур 154" d="M313.247,118.365h-34.2a1.71,1.71,0,0,1,0-3.421h32.494V56.8H279.043a1.71,1.71,0,1,1,0-3.42h34.2a1.71,1.71,0,0,1,1.71,1.71v61.567A1.71,1.71,0,0,1,313.247,118.365Z" transform="translate(-232.868 -46.523)" fill="#e54b23"/>
      <path id="Контур_155" data-name="Контур 155" d="M302.986,376.8H279.043a1.71,1.71,0,0,1,0-3.42h23.943a1.71,1.71,0,0,1,0,3.42Z" transform="translate(-232.868 -315.216)" fill="#e54b23"/>
      <path id="Контур_156" data-name="Контур 156" d="M302.986,312.8H279.043a1.71,1.71,0,0,1,0-3.421h23.943a1.71,1.71,0,0,1,0,3.421Z" transform="translate(-232.868 -261.477)" fill="#e54b23"/>
    </g>
    <path id="Контур_157" data-name="Контур 157" d="M87.043,190.827a1.71,1.71,0,0,1-1.71-1.71V161.753a1.71,1.71,0,0,1,1.71-1.71h6.841a8.551,8.551,0,0,1,8.551,8.551v3.42a8.551,8.551,0,0,1-8.551,8.551H88.754v8.551A1.71,1.71,0,0,1,87.043,190.827Zm1.71-13.682h5.131a5.131,5.131,0,0,0,5.131-5.131v-3.42a5.131,5.131,0,0,0-5.131-5.131H88.754Z" transform="translate(-71.652 -125.461)" fill="#fafafa"/>
  </g>
</svg>
