<svg id="twitter" xmlns="http://www.w3.org/2000/svg" width="25.219" height="20.491" viewBox="0 0 25.219 20.491">
  <g id="Сгруппировать_333" data-name="Сгруппировать 333">
    <path id="Контур_862" data-name="Контур 862" d="M25.219,50.426a10.78,10.78,0,0,1-2.979.816,5.141,5.141,0,0,0,2.274-2.858,10.332,10.332,0,0,1-3.278,1.252,5.17,5.17,0,0,0-8.943,3.535,5.324,5.324,0,0,0,.12,1.179A14.634,14.634,0,0,1,1.756,48.943a5.172,5.172,0,0,0,1.589,6.91,5.106,5.106,0,0,1-2.336-.637v.057a5.194,5.194,0,0,0,4.142,5.08,5.16,5.16,0,0,1-1.356.17,4.572,4.572,0,0,1-.979-.088,5.219,5.219,0,0,0,4.831,3.6,10.389,10.389,0,0,1-6.41,2.205A9.686,9.686,0,0,1,0,66.17a14.556,14.556,0,0,0,7.931,2.32A14.614,14.614,0,0,0,22.647,53.778c0-.229-.008-.449-.019-.668A10.314,10.314,0,0,0,25.219,50.426Z" transform="translate(0 -48)" fill="#1da1f2"/>
  </g>
</svg>
