<svg id="Сгруппировать_333" data-name="Сгруппировать 333" xmlns="http://www.w3.org/2000/svg" width="16.91" height="13.739" viewBox="0 0 16.91 13.739">
  <path id="Контур_862" data-name="Контур 862" d="M16.91,49.626a7.228,7.228,0,0,1-2,.547,3.447,3.447,0,0,0,1.525-1.916,6.928,6.928,0,0,1-2.2.839,3.466,3.466,0,0,0-6,2.371,3.57,3.57,0,0,0,.08.791,9.812,9.812,0,0,1-7.145-3.626,3.468,3.468,0,0,0,1.065,4.633,3.424,3.424,0,0,1-1.566-.427v.038a3.483,3.483,0,0,0,2.777,3.406,3.46,3.46,0,0,1-.909.114,3.066,3.066,0,0,1-.656-.059,3.5,3.5,0,0,0,3.239,2.415,6.966,6.966,0,0,1-4.3,1.479A6.493,6.493,0,0,1,0,60.183a9.759,9.759,0,0,0,5.318,1.556,9.8,9.8,0,0,0,9.867-9.865c0-.153-.005-.3-.013-.448A6.916,6.916,0,0,0,16.91,49.626Z" transform="translate(0 -48)" fill="#fff"/>
</svg>
